<svg width="235" height="236" viewBox="0 0 235 236" fill="none" xmlns="http://www.w3.org/2000/svg">
<g filter="url(#filter0_d)">
<path d="M96.8477 120.295C95.418 121.807 93.748 122.562 91.8379 122.562C89.5879 122.562 87.7949 121.777 86.459 120.207C85.123 118.625 84.4551 116.551 84.4551 113.984C84.4551 112.297 84.7949 110.768 85.4746 109.396C86.1543 108.025 87.1211 106.959 88.375 106.197C89.6289 105.436 91.082 105.055 92.7344 105.055C95.3125 105.055 97.3574 106.016 98.8691 107.938C100.381 109.859 101.137 112.432 101.137 115.654V116.85C101.137 121.467 100.094 124.988 98.0078 127.414C95.9219 129.84 92.8105 131.07 88.6738 131.105H88.1641V127.572H88.7793C91.2988 127.537 93.2324 126.934 94.5801 125.762C95.9277 124.578 96.6836 122.756 96.8477 120.295ZM92.7344 119.223C93.5898 119.223 94.3926 118.977 95.1426 118.484C95.8926 117.992 96.4727 117.312 96.8828 116.445V114.775C96.8828 112.889 96.4961 111.371 95.7227 110.223C94.9492 109.074 93.9473 108.5 92.7168 108.5C91.4863 108.5 90.502 109.01 89.7637 110.029C89.0371 111.037 88.6738 112.314 88.6738 113.861C88.6738 115.467 89.043 116.762 89.7812 117.746C90.5195 118.73 91.5039 119.223 92.7344 119.223ZM110.137 116.252H112.738C114.051 116.24 115.088 115.9 115.85 115.232C116.623 114.564 117.01 113.598 117.01 112.332C117.01 111.113 116.688 110.17 116.043 109.502C115.41 108.822 114.438 108.482 113.125 108.482C111.977 108.482 111.033 108.816 110.295 109.484C109.557 110.141 109.188 111.002 109.188 112.068H104.916C104.916 110.756 105.262 109.561 105.953 108.482C106.656 107.404 107.629 106.566 108.871 105.969C110.125 105.359 111.525 105.055 113.072 105.055C115.627 105.055 117.631 105.699 119.084 106.988C120.549 108.266 121.281 110.047 121.281 112.332C121.281 113.48 120.912 114.564 120.174 115.584C119.447 116.592 118.504 117.354 117.344 117.869C118.75 118.35 119.816 119.105 120.543 120.137C121.281 121.168 121.65 122.398 121.65 123.828C121.65 126.125 120.859 127.953 119.277 129.312C117.707 130.672 115.639 131.352 113.072 131.352C110.611 131.352 108.596 130.695 107.025 129.383C105.455 128.07 104.67 126.324 104.67 124.145H108.941C108.941 125.27 109.316 126.184 110.066 126.887C110.828 127.59 111.848 127.941 113.125 127.941C114.449 127.941 115.492 127.59 116.254 126.887C117.016 126.184 117.396 125.164 117.396 123.828C117.396 122.48 116.998 121.443 116.201 120.717C115.404 119.99 114.221 119.627 112.65 119.627H110.137V116.252ZM125.482 110.328C125.482 108.781 125.98 107.516 126.977 106.531C127.973 105.535 129.279 105.037 130.896 105.037C132.537 105.037 133.85 105.535 134.834 106.531C135.83 107.516 136.328 108.811 136.328 110.416V111.682C136.328 113.217 135.83 114.477 134.834 115.461C133.85 116.445 132.549 116.938 130.932 116.938C129.35 116.938 128.043 116.457 127.012 115.496C125.992 114.523 125.482 113.217 125.482 111.576V110.328ZM128.471 111.682C128.471 112.49 128.693 113.146 129.139 113.65C129.596 114.143 130.193 114.389 130.932 114.389C131.658 114.389 132.244 114.143 132.689 113.65C133.135 113.146 133.357 112.467 133.357 111.611V110.328C133.357 109.52 133.129 108.863 132.672 108.359C132.227 107.855 131.635 107.604 130.896 107.604C130.158 107.604 129.566 107.861 129.121 108.377C128.688 108.881 128.471 109.549 128.471 110.381V111.682ZM137.787 124.725C137.787 123.154 138.297 121.883 139.316 120.91C140.336 119.938 141.637 119.451 143.219 119.451C144.812 119.451 146.113 119.938 147.121 120.91C148.141 121.883 148.65 123.195 148.65 124.848V126.096C148.65 127.619 148.158 128.879 147.174 129.875C146.201 130.859 144.895 131.352 143.254 131.352C141.613 131.352 140.289 130.865 139.281 129.893C138.285 128.908 137.787 127.613 137.787 126.008V124.725ZM140.775 126.096C140.775 126.893 141.004 127.549 141.461 128.064C141.93 128.568 142.527 128.82 143.254 128.82C144.004 128.82 144.59 128.58 145.012 128.1C145.445 127.607 145.662 126.922 145.662 126.043V124.725C145.662 123.904 145.434 123.248 144.977 122.756C144.52 122.264 143.934 122.018 143.219 122.018C142.492 122.018 141.9 122.264 141.443 122.756C140.998 123.248 140.775 123.928 140.775 124.795V126.096ZM131.811 129.084L129.613 127.818L142.111 107.814L144.309 109.08L131.811 129.084Z" fill="black"/>
</g>
<rect x="51" y="217" width="12" height="12" fill="#0BAB38"/>
<path d="M68.9385 227H67.3389V217.758H68.9385V227ZM78.2441 227H76.6382L72.5186 220.443V227H70.9126V217.758H72.5186L76.6509 224.34V217.758H78.2441V227ZM87.1943 223.991C87.1012 224.977 86.7373 225.747 86.1025 226.302C85.4678 226.852 84.6235 227.127 83.5698 227.127C82.8335 227.127 82.1839 226.953 81.6211 226.606C81.0625 226.255 80.6309 225.758 80.3262 225.115C80.0215 224.472 79.8628 223.725 79.8501 222.874V222.011C79.8501 221.139 80.0046 220.371 80.3135 219.707C80.6224 219.042 81.0646 218.53 81.6401 218.17C82.2199 217.811 82.8885 217.631 83.646 217.631C84.6659 217.631 85.4868 217.908 86.1089 218.462C86.731 219.017 87.0928 219.8 87.1943 220.811H85.5947C85.5186 220.147 85.3239 219.668 85.0107 219.376C84.7018 219.08 84.2469 218.932 83.646 218.932C82.9478 218.932 82.4103 219.188 82.0337 219.7C81.6613 220.208 81.4709 220.955 81.4624 221.941V222.76C81.4624 223.758 81.6401 224.52 81.9956 225.045C82.3553 225.57 82.88 225.832 83.5698 225.832C84.2004 225.832 84.6743 225.69 84.9917 225.407C85.3091 225.123 85.5101 224.651 85.5947 223.991H87.1943Z" fill="black"/>
<rect x="97" y="217" width="12" height="12" fill="#FF0000"/>
<path d="M117.395 222.874H113.599V225.718H118.036V227H111.993V217.758H117.992V219.053H113.599V221.604H117.395V222.874ZM122.524 221.097L124.466 217.758H126.32L123.527 222.341L126.383 227H124.511L122.524 223.61L120.531 227H118.665L121.527 222.341L118.728 217.758H120.582L122.524 221.097ZM129.176 223.566V227H127.57V217.758H131.106C132.139 217.758 132.957 218.027 133.562 218.564C134.172 219.101 134.477 219.812 134.477 220.697C134.477 221.602 134.178 222.307 133.582 222.811C132.989 223.314 132.158 223.566 131.087 223.566H129.176ZM129.176 222.277H131.106C131.677 222.277 132.113 222.144 132.414 221.877C132.714 221.607 132.864 221.217 132.864 220.709C132.864 220.21 132.712 219.812 132.407 219.516C132.103 219.216 131.684 219.061 131.15 219.053H129.176V222.277Z" fill="black"/>
<rect x="142" y="217" width="12" height="12" fill="#00C2FF"/>
<path d="M161.557 224.62C161.557 224.213 161.413 223.9 161.125 223.68C160.842 223.46 160.328 223.238 159.583 223.014C158.838 222.789 158.246 222.54 157.806 222.265C156.964 221.736 156.542 221.046 156.542 220.195C156.542 219.451 156.845 218.837 157.45 218.354C158.06 217.872 158.849 217.631 159.818 217.631C160.461 217.631 161.035 217.749 161.538 217.986C162.042 218.223 162.437 218.562 162.725 219.002C163.013 219.438 163.157 219.922 163.157 220.456H161.557C161.557 219.973 161.405 219.597 161.1 219.326C160.8 219.051 160.368 218.913 159.805 218.913C159.28 218.913 158.872 219.025 158.58 219.25C158.292 219.474 158.148 219.787 158.148 220.189C158.148 220.528 158.305 220.811 158.618 221.04C158.931 221.264 159.448 221.484 160.167 221.7C160.886 221.911 161.464 222.155 161.9 222.43C162.336 222.701 162.655 223.014 162.858 223.369C163.062 223.72 163.163 224.133 163.163 224.607C163.163 225.377 162.867 225.991 162.274 226.448C161.686 226.901 160.886 227.127 159.875 227.127C159.206 227.127 158.591 227.004 158.028 226.759C157.469 226.509 157.033 226.166 156.72 225.73C156.411 225.295 156.257 224.787 156.257 224.207H157.863C157.863 224.732 158.036 225.138 158.383 225.426C158.73 225.714 159.228 225.857 159.875 225.857C160.434 225.857 160.853 225.745 161.132 225.521C161.415 225.292 161.557 224.992 161.557 224.62ZM169.746 224.848H166.166L165.417 227H163.747L167.238 217.758H168.679L172.177 227H170.501L169.746 224.848ZM166.616 223.553H169.295L167.956 219.719L166.616 223.553ZM175.992 224.988L178.34 217.758H180.105L176.779 227H175.224L171.91 217.758H173.668L175.992 224.988Z" fill="black"/>
<g filter="url(#filter1_d)">
<path d="M117.384 31.9021C136.383 31.8799 154.824 38.441 169.666 50.5043C184.508 62.5675 194.865 79.4129 199.032 98.2643C203.199 117.116 200.926 136.848 192.588 154.209C184.249 171.57 170.343 185.524 153.162 193.771C135.98 202.017 116.548 204.065 98.0684 199.576C79.5886 195.087 63.1638 184.33 51.501 169.077C39.8381 153.823 33.6333 134.984 33.9091 115.665C34.1849 96.3455 40.9248 77.6983 53.0181 62.7966L67.8452 75.2408C58.5333 86.7151 53.3436 101.073 53.1312 115.949C52.9189 130.825 57.6966 145.331 66.677 157.076C75.6574 168.822 88.3044 177.105 102.534 180.561C116.763 184.018 131.726 182.441 144.956 176.091C158.186 169.741 168.893 158.996 175.314 145.628C181.734 132.26 183.484 117.066 180.276 102.551C177.068 88.0354 169.092 75.0645 157.664 65.7758C146.236 56.4871 132.037 51.435 117.407 51.4521L117.384 31.9021Z" fill="#FF0000"/>
</g>
<path d="M82.0001 40.0238C93.2867 34.8298 105.605 32.2445 118.076 32.4527L118.067 51.9426C108.427 51.7817 98.9037 53.7802 90.1785 57.7955L82.0001 40.0238Z" fill="#0BAB38"/>
<path d="M52.7946 62.4121C64.177 48.8968 79.5795 39.4204 96.7945 35.3412L101.51 54.2691C88.2542 57.4101 76.3943 64.7069 67.6298 75.1137L52.7946 62.4121Z" fill="#00C2FF"/>
<g filter="url(#filter2_d)">
<path d="M117.384 31.9021C136.383 31.8799 154.824 38.441 169.666 50.5043C184.508 62.5675 194.865 79.4129 199.032 98.2643C203.199 117.116 200.926 136.848 192.588 154.209C184.249 171.57 170.343 185.524 153.162 193.771C135.98 202.017 116.548 204.065 98.0684 199.576C79.5886 195.087 63.1638 184.33 51.501 169.077C39.8381 153.823 33.6333 134.984 33.9091 115.665C34.1849 96.3455 40.9248 77.6983 53.0181 62.7966L67.8452 75.2408C58.5333 86.7151 53.3436 101.073 53.1312 115.949C52.9189 130.825 57.6966 145.331 66.677 157.076C75.6574 168.822 88.3044 177.105 102.534 180.561C116.763 184.018 131.726 182.441 144.956 176.091C158.186 169.741 168.893 158.996 175.314 145.628C181.734 132.26 183.484 117.066 180.276 102.551C177.068 88.0354 169.092 75.0645 157.664 65.7758C146.236 56.4871 132.037 51.435 117.407 51.4521L117.384 31.9021Z" fill="#FF0000"/>
</g>
<path d="M82.0001 40.0238C93.2867 34.8298 105.605 32.2445 118.076 32.4527L118.067 51.9426C108.427 51.7817 98.9037 53.7802 90.1785 57.7955L82.0001 40.0238Z" fill="#0BAB38"/>
<path d="M52.7946 62.4121C64.177 48.8968 79.5795 39.4204 96.7945 35.3412L101.51 54.2691C88.2542 57.4101 76.3943 64.7069 67.6298 75.1137L52.7946 62.4121Z" fill="#00C2FF"/>
<defs>
<filter id="filter0_d" x="80.4551" y="105.037" width="72.1953" height="34.3145" filterUnits="userSpaceOnUse" color-interpolation-filters="sRGB">
<feFlood flood-opacity="0" result="BackgroundImageFix"/>
<feColorMatrix in="SourceAlpha" type="matrix" values="0 0 0 0 0 0 0 0 0 0 0 0 0 0 0 0 0 0 127 0"/>
<feOffset dy="4"/>
<feGaussianBlur stdDeviation="2"/>
<feColorMatrix type="matrix" values="0 0 0 0 0 0 0 0 0 0 0 0 0 0 0 0 0 0 0.25 0"/>
<feBlend mode="normal" in2="BackgroundImageFix" result="effect1_dropShadow"/>
<feBlend mode="normal" in="SourceGraphic" in2="effect1_dropShadow" result="shape"/>
</filter>
<filter id="filter1_d" x="29.8008" y="31.8041" width="175.366" height="178.196" filterUnits="userSpaceOnUse" color-interpolation-filters="sRGB">
<feFlood flood-opacity="0" result="BackgroundImageFix"/>
<feColorMatrix in="SourceAlpha" type="matrix" values="0 0 0 0 0 0 0 0 0 0 0 0 0 0 0 0 0 0 127 0"/>
<feOffset dy="4"/>
<feGaussianBlur stdDeviation="2"/>
<feColorMatrix type="matrix" values="0 0 0 0 0 0 0 0 0 0 0 0 0 0 0 0 0 0 0.25 0"/>
<feBlend mode="normal" in2="BackgroundImageFix" result="effect1_dropShadow"/>
<feBlend mode="normal" in="SourceGraphic" in2="effect1_dropShadow" result="shape"/>
</filter>
<filter id="filter2_d" x="29.8008" y="31.8041" width="175.366" height="178.196" filterUnits="userSpaceOnUse" color-interpolation-filters="sRGB">
<feFlood flood-opacity="0" result="BackgroundImageFix"/>
<feColorMatrix in="SourceAlpha" type="matrix" values="0 0 0 0 0 0 0 0 0 0 0 0 0 0 0 0 0 0 127 0"/>
<feOffset dy="4"/>
<feGaussianBlur stdDeviation="2"/>
<feColorMatrix type="matrix" values="0 0 0 0 0 0 0 0 0 0 0 0 0 0 0 0 0 0 0.25 0"/>
<feBlend mode="normal" in2="BackgroundImageFix" result="effect1_dropShadow"/>
<feBlend mode="normal" in="SourceGraphic" in2="effect1_dropShadow" result="shape"/>
</filter>
</defs>
</svg>
