<svg width="70" height="61" viewBox="0 0 70 61" fill="none" xmlns="http://www.w3.org/2000/svg">
<path d="M30.0124 33.6153C31.1102 33.6153 32 32.7912 32 31.7745V30.4982C32 27.5628 29.5785 25.1412 26.4879 24.8571V22.8408C26.4879 21.8243 25.5984 21 24.5003 21C23.4021 21 22.5126 21.8241 22.5126 22.8408V24.9451C19.3764 25.5084 17.0005 28.0693 17.0005 31.1362C17.0005 34.6141 20.0558 37.4437 23.8111 37.4437H25.1889C26.7525 37.4437 28.0244 38.6216 28.0244 40.0697C28.0244 41.5178 26.7528 42.6957 25.1889 42.6957H23.1219C21.9383 42.6957 20.9753 41.8038 20.9753 40.7077C20.9753 39.6912 20.0858 38.8669 18.9877 38.8669C17.8895 38.8669 17 39.691 17 40.7077C17 43.6432 19.4215 46.0647 22.5121 46.3488V48.3651C22.5121 49.3816 23.4016 50.2059 24.4997 50.2059C25.5979 50.2059 26.4874 49.3819 26.4874 48.3651V46.2608C29.6236 45.6975 31.9995 43.1366 31.9995 40.0697C31.9995 36.5918 28.9442 33.7623 25.1889 33.7623H23.8111C22.2475 33.7623 20.9756 32.5843 20.9756 31.1362C20.9756 29.6882 22.2475 28.5102 23.8111 28.5102H25.8781C27.0617 28.5102 28.0247 29.4021 28.0247 30.4982V31.7745C28.0247 32.7912 28.9145 33.6153 30.0124 33.6153Z" fill="white"/>
<path d="M63.6043 5.08287C63.6038 5.08284 63.6033 5.08272 63.6028 5.08272L54.9837 4.50096C54.338 4.45739 53.7791 4.94545 53.7355 5.59127C53.6919 6.23701 54.18 6.79583 54.8257 6.83944L60.6125 7.22997L41.8823 23.5119C41.3938 23.9366 41.342 24.6767 41.7667 25.1652C42.1913 25.6536 42.9314 25.7054 43.4199 25.2808L62.1501 8.99885L61.7316 14.7836C61.6849 15.4292 62.1703 15.9903 62.8159 16.037C63.4615 16.0837 64.0226 15.5981 64.0693 14.9527L64.6927 6.33644C64.6928 6.33594 64.6927 6.33544 64.6928 6.33491C64.7386 5.68808 64.2492 5.12726 63.6043 5.08287Z" fill="white"/>
<path d="M25.0002 61C11.2161 61 0 49.7843 0 36.0002C0 22.2161 11.2161 11 25.0002 11C29.7934 11 34.4568 12.3658 38.4864 14.9522C39.2775 15.4615 39.5093 16.5161 38.9999 17.3092C38.4889 18.1024 37.4364 18.3317 36.6432 17.8228C33.1659 15.5885 29.1388 14.4091 25.0002 14.4091C13.0954 14.4091 3.4091 24.0954 3.4091 36.0002C3.4091 47.9046 13.0954 57.5909 25.0002 57.5909C36.9046 57.5909 46.5909 47.9046 46.5909 36.0002C46.5909 35.2886 46.5568 34.584 46.491 33.8912C46.4003 32.9523 47.0865 32.1204 48.0229 32.0297C48.9638 31.9432 49.7932 32.6252 49.8843 33.5616C49.9613 34.3639 50 35.1775 50 36.0002C50 49.7843 38.7843 61 25.0002 61Z" fill="white"/>
</svg>
