<svg width="30" height="20" viewBox="0 0 30 20" fill="none" xmlns="http://www.w3.org/2000/svg">
<path d="M29.8278 11.8798L26.0557 18.3462C25.7622 18.8495 25.3419 19.267 24.8367 19.5572C24.3315 19.8473 23.7591 20 23.1765 20H2.34505C1.38031 20 0.779219 18.9535 1.26531 18.1202L5.0374 11.6537C5.33095 11.1505 5.75127 10.733 6.25646 10.4429C6.76165 10.1527 7.33407 10 7.91667 10H28.7481C29.7129 10 30.314 11.0465 29.8278 11.8798ZM7.91667 8.33333H25V5.83333C25 4.4526 23.8807 3.33333 22.5 3.33333H14.1667L10.8333 0H2.5C1.11927 0 0 1.11927 0 2.5V16.9816L3.59776 10.814C4.49031 9.28385 6.14526 8.33333 7.91667 8.33333Z" fill="white"/>
</svg>
