<svg width="72" height="61" viewBox="0 0 72 61" fill="none" xmlns="http://www.w3.org/2000/svg">
<path d="M30.0124 32.7265C31.1102 32.7265 32 31.9024 32 30.8856V29.6094C32 26.6739 29.5785 24.2523 26.4879 23.9682V21.952C26.4879 20.9355 25.5984 20.1111 24.5003 20.1111C23.4021 20.1111 22.5126 20.9352 22.5126 21.952V24.0562C19.3764 24.6195 17.0005 27.1804 17.0005 30.2474C17.0005 33.7253 20.0558 36.5548 23.8111 36.5548H25.1889C26.7525 36.5548 28.0244 37.7328 28.0244 39.1808C28.0244 40.6289 26.7528 41.8069 25.1889 41.8069H23.1219C21.9383 41.8069 20.9753 40.915 20.9753 39.8188C20.9753 38.8023 20.0858 37.978 18.9877 37.978C17.8895 37.978 17 38.8021 17 39.8188C17 42.7543 19.4215 45.1759 22.5121 45.46V47.4763C22.5121 48.4928 23.4016 49.3171 24.4997 49.3171C25.5979 49.3171 26.4874 48.493 26.4874 47.4763V45.372C29.6236 44.8087 31.9995 42.2478 31.9995 39.1808C31.9995 35.703 28.9442 32.8734 25.1889 32.8734H23.8111C22.2475 32.8734 20.9756 31.6955 20.9756 30.2474C20.9756 28.7993 22.2475 27.6213 23.8111 27.6213H25.8781C27.0617 27.6213 28.0247 28.5132 28.0247 29.6094V30.8856C28.0247 31.9024 28.9145 32.7265 30.0124 32.7265Z" fill="white"/>
<path d="M44.4181 24.9544C44.4186 24.9544 44.4191 24.9546 44.4197 24.9546L53.0132 25.8368C53.657 25.9029 54.2326 25.4346 54.2987 24.7907C54.3648 24.1469 53.8965 23.5714 53.2527 23.5052L47.483 22.913L66.7701 7.29462C67.2731 6.8873 67.3507 6.14941 66.9434 5.64642C66.536 5.14343 65.7981 5.06588 65.2952 5.47319L46.0081 21.0915L46.6283 15.3249C46.6975 14.6814 46.2319 14.1036 45.5884 14.0345C44.9448 13.9652 44.3671 14.431 44.2979 15.0744L43.3742 23.6636C43.3741 23.6641 43.3741 23.6646 43.374 23.6651C43.3056 24.3099 43.7752 24.8875 44.4181 24.9544Z" fill="white"/>
<path d="M25.0002 60.1111C11.2161 60.1111 0 48.8955 0 35.1114C0 21.3272 11.2161 10.1111 25.0002 10.1111C29.7934 10.1111 34.4568 11.4769 38.4864 14.0633C39.2775 14.5727 39.5093 15.6272 38.9999 16.4204C38.4889 17.2136 37.4364 17.4429 36.6432 16.9339C33.1659 14.6996 29.1388 13.5202 25.0002 13.5202C13.0954 13.5202 3.4091 23.2066 3.4091 35.1114C3.4091 47.0157 13.0954 56.702 25.0002 56.702C36.9046 56.702 46.5909 47.0157 46.5909 35.1114C46.5909 34.3997 46.5568 33.6952 46.491 33.0023C46.4003 32.0635 47.0865 31.2316 48.0229 31.1409C48.9638 31.0543 49.7932 31.7364 49.8843 32.6727C49.9613 33.4751 50 34.2886 50 35.1114C50 48.8955 38.7843 60.1111 25.0002 60.1111Z" fill="white"/>
</svg>
