<svg width="50" height="50" viewBox="0 0 50 50" fill="none" xmlns="http://www.w3.org/2000/svg">
<path d="M37.3047 25.0977C38.1137 25.0977 38.7695 24.4418 38.7695 23.6328C38.7695 22.8238 38.1137 22.168 37.3047 22.168C36.4957 22.168 35.8398 22.8238 35.8398 23.6328C35.8398 24.4418 36.4957 25.0977 37.3047 25.0977Z" fill="white"/>
<path d="M8.79447 17.55C9.72103 18.1562 10.3746 18.3691 11.1631 18.4373V19.043C11.1631 19.5822 11.6004 20.0195 12.1397 20.0195C12.6789 20.0195 13.1162 19.5822 13.1162 19.043V18.3436C14.7389 17.9319 15.7789 16.5459 16.0087 15.1792C16.3042 13.4209 15.3495 11.8318 13.6328 11.225C13.4628 11.1649 13.2896 11.1024 13.1162 11.0381V7.88262C13.4146 7.99268 13.5699 8.14209 13.592 8.16465C13.9473 8.56543 14.5597 8.60537 14.9642 8.25303C15.3708 7.89883 15.4134 7.28193 15.0591 6.87529C14.7346 6.50273 14.0644 6.03584 13.1162 5.87168V5.37109C13.1162 4.83184 12.6789 4.39453 12.1397 4.39453C11.6004 4.39453 11.1631 4.83184 11.1631 5.37109V5.97881C11.103 5.99473 11.0422 6.01172 10.981 6.03018C9.82347 6.37881 8.95902 7.36699 8.72493 8.60898C8.51019 9.74873 8.88021 10.8515 9.69066 11.4871C10.0732 11.7872 10.5394 12.0622 11.1631 12.3481V16.4723C10.7218 16.4102 10.391 16.2606 9.86371 15.9156C9.41234 15.6202 8.80706 15.7469 8.51185 16.1982C8.21663 16.6495 8.3431 17.2547 8.79447 17.55ZM14.0826 14.8555C13.9936 15.3848 13.6655 15.9412 13.1161 16.2558V13.1189C14.173 13.5641 14.1467 14.4737 14.0826 14.8555ZM10.8959 9.95039C10.665 9.76934 10.5662 9.38477 10.6443 8.9708C10.7008 8.6707 10.8651 8.3248 11.163 8.09619V10.1385C11.0669 10.0769 10.9773 10.0142 10.8959 9.95039Z" fill="white"/>
<path d="M48.7805 21.7004L43.687 20.8354C43.0471 19.8402 42.2917 18.9232 41.4311 18.0967C41.9258 15.6222 43.259 13.4211 45.2365 11.8391L45.5439 11.5932C46.0298 11.2046 46.2171 10.5515 46.0111 9.96436C45.8052 9.37725 45.251 8.98438 44.6289 8.98438H40.7227C37.2662 8.98438 34.103 10.9386 32.5164 13.9514C31.9905 13.8954 31.4691 13.8672 30.957 13.8672H24.3007C24.3749 13.3241 24.4141 12.7701 24.4141 12.207C24.4141 5.47607 18.938 0 12.207 0C5.47607 0 0 5.47607 0 12.207C0 15.212 1.09209 17.9663 2.89932 20.0954C1.02178 22.6731 0 25.7894 0 29.0039C0 33.681 2.17676 38.0921 5.85938 40.9544V48.5352C5.85938 49.3441 6.51523 50 7.32422 50H13.1836C13.8141 50 14.3738 49.5965 14.5732 48.9983L16.1926 44.1406H29.9013L31.5205 48.9983C31.7199 49.5965 32.2797 50 32.9102 50H38.7695C39.5785 50 40.2344 49.3441 40.2344 48.5352V40.9546C42.2487 39.3901 43.8241 37.3572 44.838 35.0122L49.0853 33.2912C49.6382 33.0671 50 32.5302 50 31.9336V23.1445C50 22.4302 49.4848 21.82 48.7805 21.7004ZM12.207 2.92969C17.3226 2.92969 21.4844 7.0915 21.4844 12.207C21.4844 17.3226 17.3226 21.4844 12.207 21.4844C7.0915 21.4844 2.92969 17.3226 2.92969 12.207C2.92969 7.0915 7.0915 2.92969 12.207 2.92969ZM47.0703 30.9467L43.165 32.5291C42.7887 32.6816 42.4925 32.9835 42.3473 33.3628C41.4689 35.6557 39.9418 37.6099 37.931 39.0138C37.5385 39.2878 37.3047 39.7361 37.3047 40.2148V47.0703H33.966L32.3468 42.2126C32.1473 41.6145 31.5875 41.2109 30.957 41.2109H15.1367C14.5063 41.2109 13.9465 41.6145 13.7471 42.2126L12.1277 47.0703H8.78906V40.2148C8.78906 39.7362 8.55518 39.2878 8.16279 39.0138C4.88594 36.7258 2.92969 32.9839 2.92969 29.0039C2.92969 26.5279 3.68145 24.1243 5.06797 22.1025C7.07695 23.556 9.54355 24.4141 12.207 24.4141C17.3152 24.4141 21.6999 21.2597 23.5176 16.7969H30.957C31.6647 16.7969 32.3991 16.8648 33.1396 16.999C33.839 17.1263 34.5284 16.7322 34.7748 16.0654C35.6924 13.5824 38.0827 11.9141 40.7227 11.9141H41.0915C39.649 13.7986 38.7183 16.0413 38.4044 18.4552C38.3409 18.9438 38.5272 19.4316 38.9004 19.7534C39.9519 20.6601 40.8322 21.7195 41.5173 22.9021C41.7354 23.2789 42.1102 23.5392 42.5396 23.6121L47.0703 24.3815V30.9467Z" fill="white"/>
</svg>
